<svg xmlns="http://www.w3.org/2000/svg" viewBox="0 0 96 96" role="img" aria-label="Garden">
  <circle cx="48" cy="48" r="44" fill="#151F36"/>
  <ellipse cx="48" cy="72" rx="24" ry="6" fill="#223050"/>
  <path d="M34 70c0-4 1-7 3-9M62 70c0-4-1-7-3-9" stroke="#1E9C90" stroke-width="2.5" stroke-linecap="round" fill="none"/>
  <path d="M48 70V42" stroke="#1E9C90" stroke-width="3" stroke-linecap="round"/>
  <path d="M48 58C40 58 32 52 30 42c10 1 17 7 18 16Z" fill="#2FD0C0"/>
  <path d="M48 66c8 0 16-6 18-16-10 1-17 7-18 16Z" fill="#1E9C90"/>
  <g fill="#F8C630">
    <circle cx="54" cy="38" r="4.5"/>
    <circle cx="51" cy="43.2" r="4.5"/>
    <circle cx="45" cy="43.2" r="4.5"/>
    <circle cx="42" cy="38" r="4.5"/>
    <circle cx="45" cy="32.8" r="4.5"/>
    <circle cx="51" cy="32.8" r="4.5"/>
  </g>
  <circle cx="48" cy="38" r="4" fill="#C29010"/>
</svg>
